<svg width="104" height="104" viewBox="0 0 104 104" fill="none" xmlns="http://www.w3.org/2000/svg">
<path fill-rule="evenodd" clip-rule="evenodd" d="M65.7449 3.40449H69.884C70.721 3.40449 71.4009 2.80349 71.4009 2.06149V1.69349C71.4009 0.951494 70.721 0.350494 69.884 0.350494H30.5169C29.6777 0.350494 29 0.951494 29 1.69349V2.06149C29 2.80349 29.6777 3.40449 30.5169 3.40449H38.1059L40.0139 7.67971C40.0139 7.67971 52.2646 10.6503 63.8369 7.67971L65.7449 3.40449Z" fill="#FFC024"/>
<path fill-rule="evenodd" clip-rule="evenodd" d="M22.224 62.5268C23.0068 57.1837 24.3575 52.2786 25.9828 47.71C34.3882 49.6359 52.3095 52.1846 77.662 47.5669C79.3105 52.1761 80.679 57.1282 81.4706 62.5268C83.8332 78.6478 82.2378 89.1864 81.1761 93.7903C75.0503 90.8966 63.5083 89.4033 52.0615 89.4033C40.3657 89.4033 28.5779 90.9628 22.5617 93.9815C21.5 89.4706 19.8326 78.8497 22.224 62.5268ZM23.1367 96.7147C23.1367 96.7147 23.0844 96.5715 23.0009 96.3022C27.5552 93.9513 37.8265 91.7501 52.1088 91.7501C66.1204 91.7501 76.2714 93.8684 80.9516 96.1687C79.5408 100.521 67.1048 103.924 51.9674 103.924C37.4691 103.924 25.4507 100.802 23.2202 96.7147H23.1367Z" fill="#FF4E42"/>
<path fill-rule="evenodd" clip-rule="evenodd" d="M77.0003 45.444C71.7802 31.459 64.4194 20.5341 62.7818 10C50.6725 13.7304 40.2616 10 40.2616 10C38.6195 20.5642 31.2215 31.5225 26.0003 45.5642C34.4168 47.4662 52.2561 49.9883 77.0003 45.444Z" fill="#FAFAED"/>
<path fill-rule="evenodd" clip-rule="evenodd" d="M76.9254 71C76.3668 71 75.8952 70.5741 75.8555 70.0168C73.6061 39.1376 61.3248 21.8466 61.2002 21.675C60.8553 21.1983 60.9681 20.5372 61.4505 20.1971C61.9328 19.857 62.6052 19.9683 62.9479 20.444C63.4689 21.1623 75.7062 38.396 77.9974 69.8643C78.0404 70.448 77.5946 70.9555 77.0027 70.9979C76.977 70.9989 76.9512 71 76.9254 71Z" fill="#FAFAED"/>
</svg>
