<svg width="104" height="104" viewBox="0 0 104 104" fill="none" xmlns="http://www.w3.org/2000/svg">
<path fill-rule="evenodd" clip-rule="evenodd" d="M65.7449 3.40449H69.884C70.721 3.40449 71.4009 2.80349 71.4009 2.06149V1.69349C71.4009 0.951494 70.721 0.350494 69.884 0.350494H30.5169C29.6777 0.350494 29 0.951494 29 1.69349V2.06149C29 2.80349 29.6777 3.40449 30.5169 3.40449H38.1059L40.0139 7.67971C40.0139 7.67971 52.2646 10.6503 63.8369 7.67971L65.7449 3.40449Z" fill="#FF4E42"/>
<path fill-rule="evenodd" clip-rule="evenodd" d="M22.2237 62.5268C23.0065 57.1837 24.3572 52.2786 25.9825 47.71C34.3879 49.6359 52.3092 52.1846 77.6617 47.5669C79.3102 52.1761 80.6787 57.1282 81.4703 62.5268C83.8329 78.6478 82.2375 89.1864 81.1758 93.7903C75.0499 90.8966 63.508 89.4033 52.0612 89.4033C40.3654 89.4033 28.5776 90.9628 22.5614 93.9815C21.4997 89.4706 19.8323 78.8497 22.2237 62.5268ZM23.1364 96.7147C23.1364 96.7147 23.0841 96.5715 23.0006 96.3022C27.5549 93.9513 37.8262 91.7501 52.1085 91.7501C66.1201 91.7501 76.2711 93.8684 80.9513 96.1687C79.5405 100.521 67.1045 103.924 51.967 103.924C37.4688 103.924 25.4504 100.802 23.2199 96.7147H23.1364Z" fill="#1820EF"/>
<path fill-rule="evenodd" clip-rule="evenodd" d="M77 45.444C71.7799 31.459 64.4191 20.5341 62.7815 10C50.6722 13.7304 40.2613 10 40.2613 10C38.6192 20.5642 31.2212 31.5225 26 45.5642C34.4165 47.4662 52.2558 49.9883 77 45.444Z" fill="#FFC024"/>
<path fill-rule="evenodd" clip-rule="evenodd" d="M76.9251 71C76.3665 71 75.8949 70.5741 75.8552 70.0168C73.6058 39.1376 61.3245 21.8466 61.1999 21.675C60.855 21.1983 60.9678 20.5372 61.4501 20.1971C61.9325 19.857 62.6049 19.9683 62.9476 20.444C63.4686 21.1623 75.7059 38.396 77.9971 69.8643C78.0401 70.448 77.5943 70.9555 77.0024 70.9979C76.9766 70.9989 76.9509 71 76.9251 71Z" fill="#FAFAED"/>
</svg>
