<svg width="104" height="104" viewBox="0 0 104 104" fill="none" xmlns="http://www.w3.org/2000/svg">
<mask id="mask0_43_1106" style="mask-type:alpha" maskUnits="userSpaceOnUse" x="16" y="2" width="68" height="101">
<path fill-rule="evenodd" clip-rule="evenodd" d="M16 2.0284H83.9302V103H16V2.0284Z" fill="white"/>
</mask>
<g mask="url(#mask0_43_1106)">
<path fill-rule="evenodd" clip-rule="evenodd" d="M39.1411 6.83364C39.1411 6.83364 10.2608 33.996 17.0268 67.3652C23.7928 100.734 56.8891 109.194 71.5617 98.8539C86.2344 88.5139 87.7446 68.2528 76.6672 51.1233C65.5887 33.996 76.6858 30.235 74.9135 16.6061C73.1422 2.97609 47.4393 -2.85853 39.1411 6.83364Z" fill="#FFC024"/>
</g>
<mask id="mask1_43_1106" style="mask-type:alpha" maskUnits="userSpaceOnUse" x="21" y="0" width="66" height="103">
<path fill-rule="evenodd" clip-rule="evenodd" d="M21.123 0.704166H86.2916V102.917H21.123V0.704166Z" fill="white"/>
</mask>
<g mask="url(#mask1_43_1106)">
<path fill-rule="evenodd" clip-rule="evenodd" d="M43.3229 5.56812C43.3229 5.56812 15.6172 33.0631 22.1083 66.8436C28.5983 100.623 60.3498 109.187 74.4254 98.7196C88.501 88.2525 89.9519 67.7417 79.3237 50.403C68.6944 33.0631 79.3413 29.2574 77.6418 15.46C75.9412 1.66378 51.2836 -4.24363 43.3229 5.56812Z" fill="#FF4E42"/>
</g>
<path fill-rule="evenodd" clip-rule="evenodd" d="M47.6247 38.0185C53.5484 38.0185 58.2467 38.7555 63.3512 40.4054C63.4177 40.4315 65.8436 41.4214 67.3403 40.5791C67.9732 40.2242 68.3502 39.5859 68.4939 38.6296C68.7543 36.8917 69.1878 35.3232 69.6072 33.8057C70.4645 30.7034 71.2728 27.7726 70.7456 23.4351C70.1159 18.2801 65.0931 15.0856 60.6007 13.8145C55.8523 12.4717 49.7401 12.7626 46.7902 16.4413C46.702 16.5347 41.7478 21.555 37.409 29.5007C37.2794 30.0728 36.3937 34.3561 38.3164 36.6692C39.2358 37.7742 40.7129 38.2736 42.6661 38.1683C44.4242 38.0695 46.0669 38.0185 47.6247 38.0185ZM65.8393 42C64.3807 42 63.0528 41.4562 62.9722 41.4214C56.6258 39.3731 51.1258 38.7794 42.7282 39.2516C40.3992 39.3873 38.6269 38.7468 37.4754 37.3596C35.0746 34.4646 36.3131 29.3878 36.3665 29.174L36.4166 29.047C40.8425 20.92 45.9275 15.7716 45.9787 15.7206C49.202 11.6967 55.8033 11.3287 60.8992 12.7702C65.7271 14.1369 71.1334 17.6212 71.8262 23.3048C72.3807 27.854 71.5048 31.0269 70.6573 34.0945C70.2467 35.5805 69.8218 37.1175 69.5702 38.7902C69.3774 40.082 68.8055 41.0035 67.8719 41.5267C67.2434 41.8795 66.5266 42 65.8393 42Z" fill="#1820EF"/>
<path fill-rule="evenodd" clip-rule="evenodd" d="M39.5693 49.0883C38.743 49.0883 37.9178 49.1296 37.0947 49.2199C34.7528 49.4765 32.9774 50.4934 31.819 52.24C28.1674 57.743 31.4891 68.7467 31.5231 68.8576C34.6103 78.2333 41.5628 85.3644 50.5975 88.4127C57.7626 90.8271 65.1907 90.304 69.9886 87.05C80.3275 80.0343 81.8552 66.0442 73.6205 53.7854C73.6117 53.7854 71.0506 51.0296 68.5048 51.0241H68.4982C67.5425 51.0241 66.725 51.408 65.9984 52.1987C63.6937 54.7011 59.2191 53.3993 53.5554 51.7539C49.2188 50.4934 44.387 49.0883 39.5693 49.0883ZM59.4799 91C56.4902 91 53.3406 90.4856 50.2457 89.4416C40.8811 86.2833 33.6755 78.9 30.4776 69.185C30.3296 68.7043 26.9696 57.5744 30.9028 51.644C32.2486 49.6125 34.2925 48.4336 36.9753 48.1389C42.8165 47.4972 48.6851 49.2036 53.8633 50.7098C58.9528 52.1889 63.3474 53.4678 65.1896 51.4646C66.1222 50.451 67.2357 49.9366 68.4982 49.9366H68.5102C71.558 49.9453 74.3657 52.9893 74.483 53.1187C83.1144 65.9593 81.4651 80.5803 70.6067 87.9473C67.6291 89.9668 63.7167 91 59.4799 91Z" fill="#1820EF"/>
</svg>
