<svg width="104" height="104" viewBox="0 0 104 104" fill="none" xmlns="http://www.w3.org/2000/svg">
<path fill-rule="evenodd" clip-rule="evenodd" d="M51.9385 8.94164L51.9405 8.93921C53.1627 7.43627 54.6823 5.56772 57.6723 5.56772C60.6631 5.56772 62.1827 7.43628 63.4051 8.93946L63.406 8.94056C64.6091 10.4234 65.3673 11.2626 66.9289 11.2626C68.4863 11.2626 69.2423 10.4245 70.4476 8.94164C71.668 7.43828 73.1875 5.56772 76.177 5.56772C79.1653 5.56772 80.6838 7.43828 81.9031 8.94164C83.1052 10.4245 83.8623 11.2626 85.4185 11.2626C85.4202 11.2626 85.4218 11.2628 85.4232 11.263C85.4243 11.2633 85.4253 11.2635 85.4263 11.2637C85.4285 11.2642 85.4305 11.2647 85.4326 11.2647V0.687202H48.4037V11.2658C48.4051 11.2654 48.4065 11.265 48.4078 11.2645C48.4104 11.2635 48.4131 11.2626 48.4167 11.2626C49.9773 11.2626 50.7354 10.4234 51.9385 8.94164ZM51.9405 25.0891L51.9385 25.0915C50.7354 26.5733 49.9773 27.4125 48.4167 27.4125C48.4138 27.4125 48.4116 27.4134 48.4094 27.4142C48.4075 27.415 48.4057 27.4157 48.4037 27.4157V14.1069C48.4057 14.1069 48.4075 14.1076 48.4094 14.1083C48.4116 14.1092 48.4138 14.1101 48.4167 14.1101C51.408 14.1101 52.9275 12.2399 54.149 10.7366L54.1493 10.7362C55.3535 9.25441 56.1106 8.41525 57.6723 8.41525C59.2339 8.41525 59.991 9.25441 61.1952 10.7362L61.1955 10.7366C62.417 12.2399 63.9365 14.1101 66.9289 14.1101C69.9173 14.1101 71.4379 12.2395 72.6583 10.7362C73.8615 9.25441 74.6196 8.41525 76.177 8.41525C77.7333 8.41525 78.4903 9.25333 79.6924 10.7362C80.9117 12.2395 82.4291 14.1101 85.4185 14.1101C85.4214 14.1101 85.4239 14.1092 85.4263 14.1083C85.4285 14.1076 85.4305 14.1069 85.4326 14.1069V27.4146C85.4308 27.4146 85.429 27.4142 85.4271 27.4138L85.424 27.4131C85.4223 27.4127 85.4205 27.4125 85.4185 27.4125C83.8623 27.4125 83.1052 26.5744 81.9031 25.0915C80.6838 23.5882 79.1653 21.7176 76.177 21.7176C73.1875 21.7176 71.668 23.5882 70.4476 25.0915C69.2423 26.5744 68.4863 27.4125 66.9289 27.4125C65.3673 27.4125 64.6091 26.5733 63.406 25.0905L63.4027 25.0864C62.1807 23.5848 60.6612 21.7176 57.6723 21.7176C54.6823 21.7176 53.1627 23.5862 51.9405 25.0891ZM79.6924 26.8855C80.9117 28.3889 82.4291 30.2594 85.4185 30.2594C85.4199 30.2594 85.4212 30.2593 85.4225 30.2591C85.4238 30.2589 85.4251 30.2586 85.4263 30.2583C85.4276 30.258 85.4288 30.2577 85.4299 30.2575C85.4308 30.2574 85.4317 30.2573 85.4326 30.2573V43.565C85.4317 43.565 85.4307 43.5649 85.4298 43.5647C85.4295 43.5646 85.4292 43.5645 85.429 43.5644L85.4266 43.5636L85.4263 43.5636C85.4249 43.5631 85.4235 43.5625 85.422 43.5622C85.4209 43.562 85.4197 43.5618 85.4185 43.5618C83.8623 43.5618 83.1052 42.7248 81.9031 41.2409C80.6838 39.7386 79.1653 37.868 76.177 37.868C73.1876 37.868 71.668 39.7386 70.4476 41.2409L70.4476 41.2409C69.2423 42.7248 68.4863 43.5618 66.9289 43.5618C65.3673 43.5618 64.6091 42.7237 63.406 41.2409L63.4051 41.2398C62.1827 39.7366 60.6631 37.868 57.6723 37.868C54.6834 37.868 53.1638 39.7352 51.9418 41.2368L51.9385 41.2409C50.7354 42.7237 49.9773 43.5618 48.4167 43.5618C48.4138 43.5618 48.4116 43.5627 48.4094 43.5636C48.4075 43.5643 48.4057 43.565 48.4037 43.565V30.2573C48.4057 30.2573 48.4075 30.2578 48.4094 30.2583H48.4094H48.4094C48.4116 30.2588 48.4138 30.2594 48.4167 30.2594C51.4083 30.2594 52.9278 28.39 54.1493 26.8866C55.3535 25.4038 56.1106 24.5657 57.6723 24.5657C59.2339 24.5657 59.991 25.4038 61.1952 26.8866C62.4167 28.39 63.9363 30.2594 66.9289 30.2594C69.9173 30.2594 71.4379 28.3889 72.6583 26.8866C73.8615 25.4038 74.6196 24.5657 76.177 24.5657C77.7333 24.5657 78.4903 25.4038 79.6924 26.8855ZM76.1772 40.7156C77.7335 40.7156 78.4906 41.5536 79.6926 43.0354L79.6933 43.0363C80.9125 44.5395 82.4299 46.4104 85.4188 46.4104C85.4218 46.4104 85.4245 46.4094 85.4269 46.4085C85.4287 46.4078 85.4303 46.4072 85.4317 46.4072V53.9315H48.4028V46.4072C48.4055 46.4072 48.4077 46.408 48.4099 46.4088C48.412 46.4096 48.4142 46.4104 48.4169 46.4104C51.4082 46.4104 52.9278 44.5402 54.1492 43.0369L54.1495 43.0365C55.3537 41.5536 56.1108 40.7156 57.6714 40.7156C59.2342 40.7156 59.9912 41.5536 61.1954 43.0365L61.1958 43.0369C62.4172 44.5402 63.9367 46.4104 66.9292 46.4104C69.9166 46.4104 71.4362 44.5399 72.6564 43.0378L72.6575 43.0365C73.8617 41.5536 74.6198 40.7156 76.1772 40.7156Z" fill="#1820EF"/>
<path fill-rule="evenodd" clip-rule="evenodd" d="M37.5704 32.4628C37.3685 31.8925 37.1201 31.3374 36.8112 30.8104C35.4212 28.4419 32.7677 26.0594 27.7133 25.999C24.0413 25.9558 21.6102 27.1675 19.9988 28.7249C17.166 30.5749 17.0418 35.153 17.0418 35.153C17.0418 35.153 17.0494 35.1552 17.0504 35.1552C16.9932 35.8129 16.9802 36.4739 17.0342 37.1348L22.1729 99.1798C22.3824 101.709 24.307 103.653 26.629 103.68C28.9423 103.707 30.9068 101.826 31.1876 99.3148L37.996 38.4924C38.3513 35.314 37.5704 32.4628 37.5704 32.4628Z" fill="#FF4E42"/>
<path fill-rule="evenodd" clip-rule="evenodd" d="M24.9153 28.4638C24.9153 28.4638 15.8336 7.35739 20.9063 7.56043C25.9791 7.76347 26.1011 15.8494 26.1011 15.8494C26.1011 15.8494 23.2283 -1.48349 29.4092 0.103032C35.5922 1.68847 29.866 21.9774 29.866 21.9774C29.866 21.9774 32.9419 11.3815 36.1883 13.3125C39.4337 15.2446 30.5929 28.2835 30.5929 28.2835C30.5929 28.2835 29.4999 31.1314 24.9153 28.4638Z" fill="#1820EF"/>
<path fill-rule="evenodd" clip-rule="evenodd" d="M26.0934 61.4492C26.6949 61.4319 27.1658 60.9319 27.1496 60.3303C27.1323 59.7288 26.6323 59.2568 26.0297 59.2741C21.188 59.4156 19.8467 58.7146 19.7106 58.6326C19.4827 58.4338 19.1911 58.3561 18.9049 58.3788L19.1004 60.744C19.2397 60.8001 19.3887 60.8563 19.568 60.9124C20.6988 61.2591 22.6698 61.5507 26.0934 61.4492Z" fill="#1820EF"/>
<path fill-rule="evenodd" clip-rule="evenodd" d="M26.7557 70.5333C27.3573 70.516 27.8282 70.0149 27.8131 69.4133C27.7936 68.8139 27.2936 68.343 26.692 68.3571C21.8471 68.4996 20.5101 67.7998 20.3719 67.7166C20.1677 67.5384 19.9129 67.451 19.6569 67.451L19.8556 69.8615C19.9733 69.9069 20.0857 69.9522 20.2293 69.9954C21.3611 70.3432 23.3321 70.6348 26.7557 70.5333Z" fill="#1820EF"/>
<path fill-rule="evenodd" clip-rule="evenodd" d="M25.0767 52.8008C25.6782 52.7835 26.1502 52.2824 26.134 51.6819C26.1156 51.0814 25.6167 50.6094 25.0129 50.6256C20.167 50.7682 18.831 50.0673 18.6928 49.9841C18.5459 49.8556 18.3709 49.7908 18.1906 49.7541L18.3947 52.2068C18.4487 52.2262 18.4908 52.2446 18.5502 52.2629C19.6821 52.6107 21.652 52.9012 25.0767 52.8008Z" fill="#1820EF"/>
<path fill-rule="evenodd" clip-rule="evenodd" d="M83.2986 69.1168H50.5357C49.3575 69.1168 48.4027 68.162 48.4027 66.9838V59.4734C48.4027 58.2941 49.3575 57.3404 50.5357 57.3404H83.2986C84.478 57.3404 85.4327 58.2941 85.4327 59.4734V66.9838C85.4327 68.162 84.478 69.1168 83.2986 69.1168Z" fill="#FFC024"/>
<path fill-rule="evenodd" clip-rule="evenodd" d="M81.1618 62.0493H67.6132C67.3152 62.0493 67.0732 61.8074 67.0732 61.5093C67.0732 61.2113 67.3152 60.9693 67.6132 60.9693H81.1618C81.4599 60.9693 81.7018 61.2113 81.7018 61.5093C81.7018 61.8074 81.4599 62.0493 81.1618 62.0493Z" fill="#1820EF"/>
<path fill-rule="evenodd" clip-rule="evenodd" d="M72.2676 65.3115H52.5943C52.2962 65.3115 52.0543 65.0696 52.0543 64.7715C52.0543 64.4734 52.2962 64.2315 52.5943 64.2315H72.2676C72.5657 64.2315 72.8076 64.4734 72.8076 64.7715C72.8076 65.0696 72.5657 65.3115 72.2676 65.3115Z" fill="#1820EF"/>
<path fill-rule="evenodd" clip-rule="evenodd" d="M83.2986 84.4024H50.5357C49.3575 84.4024 48.4027 83.4466 48.4027 82.2684V74.758C48.4027 73.5798 49.3575 72.625 50.5357 72.625H83.2986C84.478 72.625 85.4327 73.5798 85.4327 74.758V82.2684C85.4327 83.4466 84.478 84.4024 83.2986 84.4024Z" fill="#FFC024"/>
<path fill-rule="evenodd" clip-rule="evenodd" d="M65.6737 77.3338H52.1251C51.827 77.3338 51.5851 77.0919 51.5851 76.7938C51.5851 76.4957 51.827 76.2538 52.1251 76.2538H65.6737C65.9718 76.2538 66.2137 76.4957 66.2137 76.7938C66.2137 77.0919 65.9718 77.3338 65.6737 77.3338Z" fill="#1820EF"/>
<path fill-rule="evenodd" clip-rule="evenodd" d="M82.1047 80.596H62.4314C62.1333 80.596 61.8914 80.3541 61.8914 80.056C61.8914 79.7579 62.1333 79.516 62.4314 79.516H82.1047C82.4028 79.516 82.6447 79.7579 82.6447 80.056C82.6447 80.3541 82.4028 80.596 82.1047 80.596Z" fill="#1820EF"/>
<path fill-rule="evenodd" clip-rule="evenodd" d="M53.6513 96.8942C51.6015 96.8942 49.9394 95.2331 49.9394 93.1822C49.9394 91.1334 51.6015 89.4724 53.6513 89.4724C55.7001 89.4724 57.3633 91.1334 57.3633 93.1822C57.3633 95.2331 55.7001 96.8942 53.6513 96.8942ZM53.6513 87.9345C50.7526 87.9345 48.4025 90.2846 48.4025 93.1822C48.4025 96.082 50.7526 98.4321 53.6513 98.4321C56.55 98.4321 58.899 96.082 58.899 93.1822C58.899 90.2846 56.55 87.9345 53.6513 87.9345ZM66.9172 102.142C64.8684 102.142 63.2063 100.481 63.2063 98.4313C63.2063 96.3815 64.8684 94.7204 66.9172 94.7204C68.967 94.7204 70.6291 96.3815 70.6291 98.4313C70.6291 100.481 68.967 102.142 66.9172 102.142ZM66.9172 93.1825C64.0185 93.1825 61.6695 95.5326 61.6695 98.4313C61.6695 101.33 64.0185 103.68 66.9172 103.68C69.817 103.68 72.166 101.33 72.166 98.4313C72.166 95.5326 69.817 93.1825 66.9172 93.1825ZM76.4722 93.1822C76.4722 95.2331 78.1343 96.8942 80.1841 96.8942C82.2329 96.8942 83.895 95.2331 83.895 93.1822C83.895 91.1334 82.2329 89.4724 80.1841 89.4724C78.1343 89.4724 76.4722 91.1334 76.4722 93.1822ZM74.9353 93.1822C74.9353 90.2846 77.2843 87.9345 80.1841 87.9345C83.0828 87.9345 85.4318 90.2846 85.4318 93.1822C85.4318 96.082 83.0828 98.4321 80.1841 98.4321C77.2843 98.4321 74.9353 96.082 74.9353 93.1822Z" fill="#1820EF"/>
</svg>
