<svg width="104" height="104" viewBox="0 0 104 104" fill="none" xmlns="http://www.w3.org/2000/svg">
<path fill-rule="evenodd" clip-rule="evenodd" d="M50.8938 35.2107C50.8938 35.2107 71.67 59.1953 76.5265 70.7216C81.3853 82.2479 73.8702 100.208 58.9213 103.417C43.9735 106.627 30.5217 96.1432 27.73 82.8514C24.9382 69.5585 37.0336 37.1942 37.0336 37.1942L41.4753 40.2094L43.6788 35.7671L48.6762 38.6629L50.8938 35.2107Z" fill="#FFC024"/>
<path fill-rule="evenodd" clip-rule="evenodd" d="M41.9934 0C42.9955 0 44.038 0.312235 45.1122 0.935624C47.2421 2.17052 48.3829 3.71333 48.5031 5.52083C48.6802 8.18509 46.4782 10.5198 45.4291 11.4727L49.9762 32.6399C50.1008 33.2233 49.7238 33.797 49.1337 33.9212C48.5381 34.0466 47.9633 33.6717 47.8376 33.0883L43.1561 11.2966C43.0698 10.8936 43.225 10.4755 43.5528 10.2216C44.367 9.58961 46.4498 7.5401 46.3219 5.65804C46.2509 4.61114 45.4718 3.6485 44.0063 2.79823C42.9015 2.15863 41.9497 2.0009 41.093 2.32826C39.2407 3.02835 38.3206 5.74231 38.3118 5.7704C38.1741 6.19392 37.7884 6.49103 37.3393 6.5202C36.8683 6.54613 36.4694 6.30088 36.2793 5.89789C36.1547 5.64832 34.8991 3.38813 31.1924 4.16817C29.5193 4.52038 28.9543 6.65633 29.2734 8.4876C29.6308 10.5393 31.1705 12.7822 34.3614 12.3684C34.9133 12.2938 35.4542 12.6623 35.5733 13.2154L40.1871 34.6959C40.3116 35.2793 39.9346 35.853 39.3445 35.9762C38.7446 36.1004 38.1741 35.7266 38.0485 35.1443L33.6325 14.5821C33.6129 14.5832 33.5932 14.5832 33.5724 14.5832C29.8133 14.5832 27.6353 11.8152 27.1206 8.85494C26.5415 5.53272 28.0965 2.61024 30.7378 2.05492C33.7003 1.43477 35.7678 2.32285 37.0125 3.40325C37.6584 2.27856 38.7271 0.909695 40.3116 0.310074C40.8569 0.103718 41.4186 0 41.9934 0Z" fill="#FAFAED"/>
<path fill-rule="evenodd" clip-rule="evenodd" d="M49.9995 52C48.6675 52 48.6661 54 49.9995 54C51.3328 54 51.3342 52 49.9995 52ZM38.9997 68C37.6681 68 37.6654 70 38.9997 70C40.3327 70 40.3341 68 38.9997 68ZM66.0003 70C64.6673 70 64.6659 72 66.0003 72C67.3319 72 67.3346 70 66.0003 70ZM69.9997 77C68.6681 77 68.6654 79 69.9997 79C71.3327 79 71.3341 77 69.9997 77ZM66.0003 86C64.6673 86 64.6659 88 66.0003 88C67.3319 88 67.3346 86 66.0003 86Z" fill="#FF4E42"/>
</svg>
