<svg width="104" height="105" viewBox="0 0 104 105" fill="none" xmlns="http://www.w3.org/2000/svg">
<path fill-rule="evenodd" clip-rule="evenodd" d="M66.7013 87.7417C67.3323 87.8247 67.9493 88.0187 68.5153 88.3177L81.9253 95.3877C82.0893 95.4737 82.2043 95.6067 82.2963 95.7537C82.5953 94.9787 82.7063 94.1267 82.5673 93.2647C81.3487 85.675 78.2494 67.5921 75.5935 52.0961C74.1824 43.8632 72.8965 36.3606 72.0843 31.5497C71.6163 28.7837 68.8963 27.0327 66.1693 27.6887C63.9783 28.2157 61.8843 28.6017 59.8853 28.8797C59.9713 29.0097 60.0373 29.1547 60.0563 29.3207L66.7013 87.7417ZM38.0545 87.8723C37.6555 87.9773 37.2655 88.1233 36.8985 88.3173L23.4895 95.3873C23.3945 95.4373 23.3225 95.5093 23.2515 95.5823C23.0045 94.8473 22.9305 94.0483 23.0675 93.2473L33.7025 31.8673C34.1725 29.1073 36.8895 27.3083 39.6025 28.0013C41.1145 28.3873 42.9615 28.7603 45.0975 29.0333C45.0575 29.1233 45.0175 29.2133 45.0045 29.3153L38.0545 87.8723ZM24.2754 97.2176L24.2754 97.2176C24.328 97.2065 24.3804 97.1954 24.4298 97.1689L37.7868 90.1259L36.1848 103.627L25.6618 98.3649C25.0948 98.0819 24.6148 97.6879 24.2128 97.2319C24.2335 97.2265 24.2545 97.2221 24.2754 97.2176ZM64.6696 87.6923H40.1046L47.0046 29.5523C47.0176 29.4443 47.0006 29.3413 46.9796 29.2403C50.1636 29.5253 53.9016 29.5583 58.1186 29.0963C58.0676 29.2373 58.0386 29.3883 58.0566 29.5473L64.6696 87.6923ZM39.8653 89.706L38.1333 104.302C38.3413 104.33 38.5523 104.347 38.7623 104.347H66.5633L64.8983 89.706H39.8653ZM66.9413 89.8561C67.1583 89.9201 67.3743 89.9931 67.5763 90.0991L80.9853 97.1691C81.1033 97.2311 81.2293 97.2601 81.3543 97.2731C80.9653 97.6981 80.5043 98.0651 79.9653 98.3351L68.9583 103.838C68.8263 103.904 68.6883 103.959 68.5523 104.013L66.9413 89.8561Z" fill="#FAFAED"/>
<path fill-rule="evenodd" clip-rule="evenodd" d="M38.1144 24.8486C42.9234 26.4766 53.9184 29.0466 67.4294 24.7566C69.1174 24.2216 70.1414 22.6366 69.8134 21.0426C68.9294 16.7516 65.5754 8.9996 52.8834 8.9996C40.0914 8.9996 36.7094 16.8726 35.8164 21.1416C35.4864 22.7186 36.4574 24.2866 38.1144 24.8486Z" fill="#FF4E42"/>
<path fill-rule="evenodd" clip-rule="evenodd" d="M54.2931 12.7207C54.2931 13.4627 53.6311 14.0637 52.8141 14.0637C51.9961 14.0637 51.3331 13.4627 51.3331 12.7207C51.3331 11.9797 51.9961 11.3787 52.8141 11.3787C53.6311 11.3787 54.2931 11.9797 54.2931 12.7207ZM48.0499 15.4062C48.0499 16.1472 47.3879 16.7492 46.5709 16.7492C45.7529 16.7492 45.0899 16.1472 45.0899 15.4062C45.0899 14.6642 45.7529 14.0632 46.5709 14.0632C47.3879 14.0632 48.0499 14.6642 48.0499 15.4062ZM59.0572 16.7492C59.8742 16.7492 60.5362 16.1472 60.5362 15.4062C60.5362 14.6642 59.8742 14.0632 59.0572 14.0632C58.2392 14.0632 57.5762 14.6642 57.5762 15.4062C57.5762 16.1472 58.2392 16.7492 59.0572 16.7492Z" fill="#1820EF"/>
<path fill-rule="evenodd" clip-rule="evenodd" d="M54 1C54 1.55175 53.5527 2 53.0007 2C52.448 2 52 1.55175 52 1C52 0.447506 52.448 0 53.0007 0C53.5527 0 54 0.447506 54 1ZM60 4.686C60 5.23775 59.5527 5.686 59.0007 5.686C58.448 5.686 58 5.23775 58 4.686C58 4.13351 58.448 3.686 59.0007 3.686C59.5527 3.686 60 4.13351 60 4.686ZM47.0007 5C47.5527 5 48 4.55175 48 4C48 3.44751 47.5527 3 47.0007 3C46.448 3 46 3.44751 46 4C46 4.55175 46.448 5 47.0007 5Z" fill="#FAFAED"/>
</svg>
