<svg width="104" height="104" viewBox="0 0 104 104" fill="none" xmlns="http://www.w3.org/2000/svg">
<path fill-rule="evenodd" clip-rule="evenodd" d="M102.617 45.513C102.617 35.927 79.3725 27.828 51.8574 27.828C24.3422 27.828 1.09738 35.927 1.09738 45.513C1.09738 47.1309 1.77346 48.7034 3.00574 50.2046C9.07642 42.8087 28.9851 37.2111 51.8574 37.2111C74.7307 37.2111 94.6383 42.8087 100.71 50.2046C101.942 48.7034 102.617 47.1309 102.617 45.513Z" fill="#FF4E42"/>
<path fill-rule="evenodd" clip-rule="evenodd" d="M51.8574 37.2105C28.9852 37.2105 9.07645 42.8093 3.00577 50.204C9.07645 57.5999 28.9852 63.1986 51.8574 63.1986C74.7307 63.1986 94.6384 57.5999 100.71 50.204C94.6384 42.8093 74.7307 37.2105 51.8574 37.2105Z" fill="#FFC024"/>
<path fill-rule="evenodd" clip-rule="evenodd" d="M51.858 65.3584C77.8148 65.3584 98.8499 58.6894 103.716 49.5709C103.311 59.8082 99.2625 86.4313 68.5829 93.5453H35.1332C4.45144 86.4313 0.404683 59.8039 0.000762939 49.5688C4.86292 58.6883 25.9002 65.3584 51.858 65.3584ZM64.8373 99.4508H38.8784C36.8102 99.4508 35.1329 97.7736 35.1329 95.7054H68.5827C68.5827 97.7736 66.9055 99.4508 64.8373 99.4508Z" fill="#1820EF"/>
<path fill-rule="evenodd" clip-rule="evenodd" d="M35.1543 35.3105C34.5571 35.3105 34.0743 34.8267 34.0743 34.2305C34.0743 31.9636 35.4935 30.8112 36.6339 29.8867C37.7582 28.9741 38.3943 28.4007 38.3943 27.2202C38.3943 26.0376 37.7582 25.4631 36.6329 24.5505C35.4924 23.6238 34.0743 22.4715 34.0743 20.2035C34.0743 17.9344 35.4924 16.7809 36.6329 15.8543C37.7582 14.9406 38.3943 14.365 38.3943 13.1813C38.3943 11.9987 37.7582 11.4231 36.6329 10.5094C35.4924 9.58274 34.0743 8.4293 34.0743 6.16022C34.0743 5.56406 34.5571 5.08022 35.1543 5.08022C35.7516 5.08022 36.2343 5.56406 36.2343 6.16022C36.2343 7.3439 36.8705 7.91846 37.9958 8.83322C39.1363 9.75986 40.5543 10.9122 40.5543 13.1813C40.5543 15.4515 39.1363 16.6038 37.9958 17.5305C36.8705 18.4452 36.2343 19.0198 36.2343 20.2035C36.2343 21.385 36.8705 21.9595 37.9958 22.8732C39.1363 23.7988 40.5543 24.9511 40.5543 27.2202C40.5543 29.4867 39.1357 30.638 37.9954 31.5635L37.9947 31.564C36.8705 32.4755 36.2343 33.0501 36.2343 34.2305C36.2343 34.8267 35.7516 35.3105 35.1543 35.3105ZM49.6974 35.3105C49.1002 35.3105 48.6174 34.8267 48.6174 34.2305C48.6174 31.9636 50.0365 30.8112 51.177 29.8867C52.3013 28.9741 52.9374 28.4007 52.9374 27.2202C52.9374 26.0376 52.3013 25.4631 51.1759 24.5505C50.0354 23.6238 48.6174 22.4715 48.6174 20.2035C48.6174 17.9344 50.0354 16.7809 51.1759 15.8543C52.3013 14.9406 52.9374 14.365 52.9374 13.1813C52.9374 11.9987 52.3013 11.4231 51.1759 10.5094C50.0354 9.58274 48.6174 8.4293 48.6174 6.16022C48.6174 5.56406 49.1002 5.08022 49.6974 5.08022C50.2946 5.08022 50.7774 5.56406 50.7774 6.16022C50.7774 7.3439 51.4135 7.91846 52.5389 8.83322C53.6794 9.75986 55.0974 10.9122 55.0974 13.1813C55.0974 15.4515 53.6794 16.6038 52.5389 17.5305C51.4135 18.4452 50.7774 19.0198 50.7774 20.2035C50.7774 21.385 51.4135 21.9595 52.5389 22.8732C53.6794 23.7988 55.0974 24.9511 55.0974 27.2202C55.0974 29.4867 53.6788 30.638 52.5384 31.5635L52.5384 31.5635L52.5378 31.564C51.4135 32.4755 50.7774 33.0501 50.7774 34.2305C50.7774 34.8267 50.2946 35.3105 49.6974 35.3105ZM63.1615 34.2305C63.1615 34.8267 63.6443 35.3105 64.2415 35.3105C64.8388 35.3105 65.3215 34.8267 65.3215 34.2305C65.3215 33.0501 65.9577 32.4755 67.0819 31.564L67.0826 31.5635C68.2229 30.638 69.6415 29.4867 69.6415 27.2202C69.6415 24.9511 68.2235 23.7988 67.083 22.8732C65.9577 21.9595 65.3215 21.385 65.3215 20.2035C65.3215 19.0198 65.9577 18.4452 67.083 17.5305C68.2235 16.6038 69.6415 15.4515 69.6415 13.1813C69.6415 10.9122 68.2235 9.75986 67.083 8.83322C65.9577 7.91846 65.3215 7.3439 65.3215 6.16022C65.3215 5.56406 64.8388 5.08022 64.2415 5.08022C63.6443 5.08022 63.1615 5.56406 63.1615 6.16022C63.1615 8.4293 64.5796 9.58274 65.7201 10.5094C66.8454 11.4231 67.4815 11.9987 67.4815 13.1813C67.4815 14.365 66.8454 14.9406 65.7201 15.8543C64.5796 16.7809 63.1615 17.9344 63.1615 20.2035C63.1615 22.4715 64.5796 23.6238 65.7201 24.5505C66.8454 25.4631 67.4815 26.0376 67.4815 27.2202C67.4815 28.4007 66.8454 28.9741 65.7211 29.8867C64.5807 30.8112 63.1615 31.9636 63.1615 34.2305Z" fill="#1820EF"/>
</svg>
