<svg width="104" height="104" viewBox="0 0 104 104" fill="none" xmlns="http://www.w3.org/2000/svg">
<path fill-rule="evenodd" clip-rule="evenodd" d="M49.8938 35.2107C49.8938 35.2107 70.6699 59.1953 75.5265 70.7216C80.3853 82.2479 72.8702 100.208 57.9213 103.417C42.9734 106.627 29.5217 96.1432 26.7299 82.8514C23.9382 69.5585 36.0336 37.1942 36.0336 37.1942L40.4753 40.2094L42.6788 35.7671L47.6762 38.6629L49.8938 35.2107Z" fill="#FF4E42"/>
<path fill-rule="evenodd" clip-rule="evenodd" d="M40.9934 0C41.9955 0 43.038 0.312235 44.1122 0.935624C46.2421 2.17052 47.3829 3.71333 47.5031 5.52083C47.6802 8.18509 45.4782 10.5198 44.4291 11.4727L48.9762 32.6399C49.1008 33.2233 48.7238 33.797 48.1337 33.9212C47.5381 34.0466 46.9633 33.6717 46.8376 33.0883L42.1561 11.2966C42.0698 10.8936 42.225 10.4755 42.5528 10.2216C43.367 9.58961 45.4498 7.5401 45.3219 5.65804C45.2509 4.61114 44.4718 3.6485 43.0063 2.79823C41.9015 2.15863 40.9497 2.0009 40.093 2.32826C38.2407 3.02835 37.3206 5.74231 37.3118 5.7704C37.1741 6.19392 36.7884 6.49103 36.3393 6.5202C35.8683 6.54613 35.4694 6.30088 35.2793 5.89789C35.1547 5.64832 33.8991 3.38813 30.1924 4.16817C28.5193 4.52038 27.9543 6.65633 28.2734 8.4876C28.6308 10.5393 30.1705 12.7822 33.3614 12.3684C33.9133 12.2938 34.4542 12.6623 34.5733 13.2154L39.1871 34.6959C39.3116 35.2793 38.9346 35.853 38.3445 35.9762C37.7446 36.1004 37.1741 35.7266 37.0485 35.1443L32.6325 14.5821C32.6129 14.5832 32.5932 14.5832 32.5724 14.5832C28.8133 14.5832 26.6353 11.8152 26.1206 8.85494C25.5415 5.53272 27.0965 2.61024 29.7378 2.05492C32.7003 1.43477 34.7678 2.32285 36.0125 3.40325C36.6584 2.27856 37.7271 0.909695 39.3116 0.310074C39.8569 0.103718 40.4186 0 40.9934 0Z" fill="#1820EF"/>
<path fill-rule="evenodd" clip-rule="evenodd" d="M48.9995 52C47.6675 52 47.6661 54 48.9995 54C50.3328 54 50.3342 52 48.9995 52ZM37.9997 68C36.6681 68 36.6654 70 37.9997 70C39.3327 70 39.3341 68 37.9997 68ZM65.0003 70C63.6673 70 63.6659 72 65.0003 72C66.3319 72 66.3346 70 65.0003 70ZM68.9997 77C67.6681 77 67.6654 79 68.9997 79C70.3327 79 70.3341 77 68.9997 77ZM65.0003 86C63.6673 86 63.6659 88 65.0003 88C66.3319 88 66.3346 86 65.0003 86Z" fill="#FFC024"/>
</svg>
